<svg xmlns="http://www.w3.org/2000/svg" version="1.1" xmlns:xlink="http://www.w3.org/1999/xlink" xmlns:svgjs="http://svgjs.dev/svgjs" width="1500" height="1500" viewBox="0 0 1500 1500"><rect width="1500" height="1500" fill="#ffffff"></rect><g transform="matrix(0.6666666666666666,0,0,0.6666666666666666,249.59379927777292,391.2906882591093)"><svg viewBox="0 0 344 247" data-background-color="#ffffff" preserveAspectRatio="xMidYMid meet" height="1077" width="1500" xmlns="http://www.w3.org/2000/svg" xmlns:xlink="http://www.w3.org/1999/xlink"><g id="tight-bounds" transform="matrix(1,0,0,1,0.1397330484461179,-0.09999999999999432)"><svg viewBox="0 0 343.72053390310776 247.2" height="247.2" width="343.72053390310776"><g><svg viewBox="0 0 395.52 284.4536021451699" height="247.2" width="343.72053390310776"><g transform="matrix(1,0,0,1,0,171.09512958191888)"><svg viewBox="0 0 395.52 113.35847256325101" height="113.35847256325101" width="395.52"><g id="textblocktransform"><svg viewBox="0 0 395.52 113.35847256325101" height="113.35847256325101" width="395.52" id="textblock"><g><svg viewBox="0 0 395.52 61.14014342629483" height="61.14014342629483" width="395.52"><g transform="matrix(1,0,0,1,0,0)"><svg width="395.52" viewBox="0.9 -37.8 250.98 38.8" height="61.14014342629483" data-palette-color="#ecab55"><path d="M25.35-8.3L25.75-2.45 29.3-1.5 29.05 0.25 23.15 0 17.05 0.25 17.15-1.5 20.45-2.5 20.8-7.75 20.6-18.65 19.25-21.95 15-22.7 10.05-20.05 9.95-18.15 9.65-13.15 9.75-8.3 10-2.5 13.65-1.5 13.4 0.25 7.5 0 1.4 0.25 1.5-1.5 4.8-2.5 5.15-7.75 4.95-17.35 4.7-22.55 1.15-22.4 0.9-24.15 7.8-25.5 10.3-24.95 10.15-22.6 15-25.65 20.1-26 24.7-22.85 24.95-21.5 29.95-25.65 35.05-26 39.65-22.85 40.4-18.85 40.3-8.3 40.7-2.45 44.25-1.5 44 0.25 38.1 0 32 0.25 32.1-1.5 35.4-2.5 35.75-7.75 35.55-18.65 34.2-21.95 29.95-22.7 25.35-19.35 25.45-18.85 25.35-8.3ZM54.85-24.95L54.5-18.15 54.2-13.15 54.35-8.3 54.55-2.5 58.2-1.5 57.95 0.25 52.05 0 45.95 0.25 46.05-1.5 49.35-2.5 49.6-7.75 49.5-17.35 49.25-22.55 45.7-22.4 45.45-24.15 52.35-25.5 54.85-24.95ZM47.8-34.4L48.95-36.25 51.2-37.3 53.5-36.55 54.55-33.95 53.2-31.85 50.95-30.95 48.85-32.25 47.8-34.4ZM84.9-8.3L85.3-2.45 88.85-1.5 88.6 0.25 82.7 0 76.6 0.25 76.7-1.5 80-2.5 80.35-7.75 80.15-18.65 78.8-21.95 74.55-22.7 69.1-19.9 69-18.15 68.7-13.15 68.8-8.3 69.05-2.5 72.7-1.5 72.45 0.25 66.55 0 60.45 0.25 60.55-1.5 63.85-2.5 64.2-7.75 63.75-22.55 60.2-22.4 59.95-24.15 66.85-25.5 69.35-24.95 69.2-22.4 74.55-25.65 79.65-26 84.25-22.85 85-18.85 84.9-8.3ZM110.29 0.7L109.34-2.25 109.09-2.25 103.54 1 97.99 0.4 94.34-2.2 91.44-8.15 91.39-16.65 93.29-20.6 99.04-25.25 104.59-26 109.44-24.75 109.14-34.3 104.99-34.7 105.24-36.45 112.14-37.8 114.14-37.25 113.79-17.9 114.14-2.05 117.59-1.55 117.24 0.1 110.29 0.7ZM97.69-4.6L101.99-1.55 109.34-4.35 109.44-22 103.89-23.75 100.74-22.85 96.89-18.75 96.19-13 97.69-4.6ZM123.44-7.5L123.84-1.95 127.99-1.3 132.64-1.95 133.74-5.35 132.39-7.95 123.09-13.6 121.09-16.75 120.99-22.05 124.54-25.05 129.79-26 137.14-24.5 136.09-17.15 133.99-17.85 133.04-23.05 129.59-23.7 125.84-22.85 124.89-20.1 126.09-17.15 135.69-11.65 138.04-8.7 138.24-4 134.84 0 128.84 1 124.69 0.8 120.04-1 121.29-8.2 123.44-7.5ZM159.89-16.9L158.99-23.15 152.69-23.65 148.19-18.85 146.89-13.65 147.54-8.35 150.74-2.55 156.89-1.55 161.59-4.05 162.49-2.75 158.54 0.4 153.84 1 146.69-1.05 142.24-8.3 142.19-16.65 145.59-22.6 150.84-25.35 155.39-26 163.04-25 161.54-17.15 159.89-16.9ZM174.59-24.95L174.39-20.9 174.59-20.9 177.69-24.45 181.09-25.95 184.84-25 183.99-17.55 182.24-17.9 180.99-23.05 177.74-22 174.19-17.85 173.94-13.15 174.09-8.3 174.29-2.5 179.29-1.5 179.04 0.25 171.79 0 165.69 0.25 165.79-1.5 169.09-2.5 169.34-7.75 169.24-17.35 168.99-22.55 165.44-22.4 165.19-24.15 172.09-25.5 174.59-24.95ZM196.13-24.95L195.78-18.15 195.48-13.15 195.63-8.3 195.83-2.5 199.48-1.5 199.23 0.25 193.33 0 187.23 0.25 187.33-1.5 190.63-2.5 190.88-7.75 190.78-17.35 190.53-22.55 186.98-22.4 186.73-24.15 193.63-25.5 196.13-24.95ZM189.08-34.4L190.23-36.25 192.48-37.3 194.78-36.55 195.83-33.95 194.48-31.85 192.23-30.95 190.13-32.25 189.08-34.4ZM209.18-37.25L208.58-22.85 208.93-22.5 214.13-25.35 219.58-25.5 224.88-21.45 226.98-13.1 225.48-5.65 221.88-1.1 214.68 1 205.23-0.25 203.48-2 203.88-18.5 203.83-29.85 203.58-34.85 200.03-34.7 199.78-36.45 206.68-37.8 209.18-37.25ZM208.58-20.1L208.48-7.65 208.88-3 215.38-1.55 220.33-4.65 221.78-10.15 221.58-16.75 218.03-21.9 214.93-22.65 208.58-20.1ZM244.53-12.9L235.88-13.45 235.83-13 237.18-5.95 241.13-2.05 245.73-1.55 250.43-4.05 251.33-2.75 247.38 0.4 242.68 1 237.78-0.15 233.53-3.7 230.98-11.2 231.83-17.9 234.43-22.6 239.68-25.5 244.08-26.05 247.58-24.95 250.28-22.5 251.83-18.05 251.88-13.9 251.18-13.35 244.53-12.9ZM242.18-23.8L238.38-21.55 236.43-17.75 236.13-15.5 243.73-15.4 247.18-16.15 246.88-20.8 245.38-23.35 242.18-23.8Z" opacity="1" transform="matrix(1,0,0,1,0,0)" fill="#000000" class="wordmark-text-0" data-fill-palette-color="primary" id="text-0"></path></svg></g></svg></g><g transform="matrix(1,0,0,1,0,75.57386392580081)"><svg viewBox="0 0 395.52 37.784608637450205" height="37.784608637450205" width="395.52"><g transform="matrix(1,0,0,1,0,0)"><svg width="395.52" viewBox="4.5 -37.1 492.51 47.05" height="37.784608637450205" data-palette-color="#ecab55"><path d="M19.55-26.75L19.55-26.75Q23.35-26.75 26.2-25.05 29.05-23.35 30.65-20.3 32.25-17.25 32.25-13.2L32.25-13.2Q32.25-9.25 30.68-6.23 29.1-3.2 26.28-1.5 23.45 0.2 19.65 0.2L19.65 0.2Q16 0.2 13.43-1.4 10.85-3 9.5-6.03 8.15-9.05 8.15-13.2L8.15-13.2Q8.15-17.5 9.5-20.53 10.85-23.55 13.43-25.15 16-26.75 19.55-26.75ZM18.35-22.2L18.35-22.2Q16-22.2 14.15-21.05 12.3-19.9 11.28-17.93 10.25-15.95 10.25-13.35L10.25-13.35Q10.25-10.75 11.28-8.72 12.3-6.7 14.15-5.58 16-4.45 18.35-4.45L18.35-4.45Q20.75-4.45 22.58-5.6 24.4-6.75 25.43-8.75 26.45-10.75 26.45-13.35L26.45-13.35Q26.45-15.9 25.43-17.9 24.4-19.9 22.58-21.05 20.75-22.2 18.35-22.2ZM4.5 0L4.5-37.1 10.25-37.1 10.25 0 4.5 0ZM52.15-15.2L68.4-15.2Q68.3-17.45 67.38-19.03 66.45-20.6 64.8-21.48 63.15-22.35 61-22.35L61-22.35Q58.6-22.35 56.83-21.25 55.05-20.15 54.05-18.18 53.05-16.2 53.05-13.55L53.05-13.55Q53.05-10.7 54.13-8.6 55.2-6.5 57.13-5.35 59.05-4.2 61.55-4.2L61.55-4.2Q66-4.2 69.05-7.35L69.05-7.35 72.1-4.3Q70.15-2.15 67.35-0.98 64.55 0.2 61.1 0.2L61.1 0.2Q57 0.2 53.95-1.5 50.9-3.2 49.2-6.23 47.5-9.25 47.5-13.25L47.5-13.25Q47.5-17.25 49.2-20.28 50.9-23.3 53.95-25 57-26.7 60.95-26.75L60.95-26.75Q65.65-26.75 68.5-24.83 71.35-22.9 72.55-19.4 73.75-15.9 73.4-11.1L73.4-11.1 52.15-11.1 52.15-15.2ZM138.95-26.55L126.85 3.75Q125.6 6.8 123.4 8.38 121.2 9.95 118.2 9.95L118.2 9.95Q116.4 9.95 114.93 9.4 113.45 8.85 112.05 7.75L112.05 7.75 114.5 3.5Q116.3 4.8 117.95 4.8L117.95 4.8Q119.25 4.8 120.3 4.05 121.35 3.3 122 1.75L122 1.75 122.9-0.35 111.9-26.55 117.85-26.55 125.8-6.05 133.2-26.55 138.95-26.55ZM166.1-26.75L166.1-26.75Q170.2-26.75 173.33-25.05 176.45-23.35 178.2-20.33 179.95-17.3 179.95-13.3L179.95-13.3Q179.95-9.3 178.2-6.25 176.45-3.2 173.33-1.5 170.2 0.2 166.1 0.2L166.1 0.2Q162 0.2 158.85-1.5 155.7-3.2 153.95-6.25 152.2-9.3 152.2-13.3L152.2-13.3Q152.2-17.3 153.95-20.33 155.7-23.35 158.85-25.05 162-26.75 166.1-26.75ZM166.1-22.1L166.1-22.1Q163.7-22.1 161.85-20.98 160-19.85 158.98-17.85 157.95-15.85 157.95-13.25L157.95-13.25Q157.95-10.6 158.98-8.6 160-6.6 161.85-5.48 163.7-4.35 166.1-4.35L166.1-4.35Q168.5-4.35 170.33-5.48 172.15-6.6 173.18-8.6 174.2-10.6 174.2-13.25L174.2-13.25Q174.2-15.85 173.18-17.85 172.15-19.85 170.33-20.98 168.5-22.1 166.1-22.1ZM202.6-26.55L202.6-11.55Q202.6-8.45 204.25-6.68 205.9-4.9 208.8-4.9L208.8-4.9Q212.25-5 214.18-7.45 216.1-9.9 216.1-13.5L216.1-13.5 217.65-13.5Q217.65-8.6 216.3-5.6 214.95-2.6 212.48-1.23 210 0.15 206.6 0.2L206.6 0.2Q203.55 0.2 201.38-1.05 199.2-2.3 198.03-4.6 196.85-6.9 196.85-10.05L196.85-10.05 196.85-26.55 202.6-26.55ZM216.1 0L216.1-26.55 221.85-26.55 221.85 0 216.1 0ZM242.5-2.3L243.85 0.35Q241.95 0.35 241.08-0.58 240.2-1.5 240.2-2.7L240.2-2.7Q240.2-4.05 241.08-4.9 241.95-5.75 243.3-5.75L243.3-5.75Q244.5-5.75 245.43-4.95 246.35-4.15 246.35-2.7L246.35-2.7Q246.35-2 246.08-1.4 245.8-0.8 245.5-0.2L245.5-0.2 242.65 5.5 239.7 5.5 242.5-2.3ZM305.1-26.75L305.1-26.75Q308.9-26.75 311.75-25.05 314.6-23.35 316.2-20.3 317.8-17.25 317.8-13.2L317.8-13.2Q317.8-9.25 316.23-6.23 314.65-3.2 311.83-1.5 309 0.2 305.2 0.2L305.2 0.2Q301.55 0.2 298.98-1.4 296.4-3 295.05-6.03 293.7-9.05 293.7-13.2L293.7-13.2Q293.7-17.5 295.05-20.53 296.4-23.55 298.98-25.15 301.55-26.75 305.1-26.75ZM303.9-22.2L303.9-22.2Q301.55-22.2 299.7-21.05 297.85-19.9 296.83-17.93 295.8-15.95 295.8-13.35L295.8-13.35Q295.8-10.75 296.83-8.72 297.85-6.7 299.7-5.58 301.55-4.45 303.9-4.45L303.9-4.45Q306.3-4.45 308.13-5.6 309.95-6.75 310.98-8.75 312-10.75 312-13.35L312-13.35Q312-15.9 310.98-17.9 309.95-19.9 308.13-21.05 306.3-22.2 303.9-22.2ZM290.05 0L290.05-37.1 295.8-37.1 295.8 0 290.05 0ZM337.71-15.2L353.96-15.2Q353.86-17.45 352.93-19.03 352.01-20.6 350.36-21.48 348.71-22.35 346.56-22.35L346.56-22.35Q344.16-22.35 342.38-21.25 340.61-20.15 339.61-18.18 338.61-16.2 338.61-13.55L338.61-13.55Q338.61-10.7 339.68-8.6 340.76-6.5 342.68-5.35 344.61-4.2 347.11-4.2L347.11-4.2Q351.56-4.2 354.61-7.35L354.61-7.35 357.66-4.3Q355.71-2.15 352.91-0.98 350.11 0.2 346.66 0.2L346.66 0.2Q342.56 0.2 339.51-1.5 336.46-3.2 334.76-6.23 333.06-9.25 333.06-13.25L333.06-13.25Q333.06-17.25 334.76-20.28 336.46-23.3 339.51-25 342.56-26.7 346.51-26.75L346.51-26.75Q351.21-26.75 354.06-24.83 356.91-22.9 358.11-19.4 359.31-15.9 358.96-11.1L358.96-11.1 337.71-11.1 337.71-15.2ZM383.46-32.85L383.46-8.4Q383.46-6.25 384.21-5.48 384.96-4.7 386.31-4.7L386.31-4.7Q387.21-4.7 388.18-5 389.16-5.3 390.31-5.9L390.31-5.9 391.76-1.75Q390.21-0.8 388.56-0.28 386.91 0.25 385.21 0.25L385.21 0.25Q383.21 0.25 381.51-0.53 379.81-1.3 378.78-3 377.76-4.7 377.76-7.4L377.76-7.4 377.76-32.85 383.46-32.85ZM374.01-21.5L374.01-25.6 391.31-25.6 391.31-21.5 374.01-21.5ZM415.56-32.85L415.56-8.4Q415.56-6.25 416.31-5.48 417.06-4.7 418.41-4.7L418.41-4.7Q419.31-4.7 420.28-5 421.26-5.3 422.41-5.9L422.41-5.9 423.86-1.75Q422.31-0.8 420.66-0.28 419.01 0.25 417.31 0.25L417.31 0.25Q415.31 0.25 413.61-0.53 411.91-1.3 410.88-3 409.86-4.7 409.86-7.4L409.86-7.4 409.86-32.85 415.56-32.85ZM406.11-21.5L406.11-25.6 423.41-25.6 423.41-21.5 406.11-21.5ZM443.06-15.2L459.31-15.2Q459.21-17.45 458.28-19.03 457.36-20.6 455.71-21.48 454.06-22.35 451.91-22.35L451.91-22.35Q449.51-22.35 447.73-21.25 445.96-20.15 444.96-18.18 443.96-16.2 443.96-13.55L443.96-13.55Q443.96-10.7 445.03-8.6 446.11-6.5 448.03-5.35 449.96-4.2 452.46-4.2L452.46-4.2Q456.91-4.2 459.96-7.35L459.96-7.35 463.01-4.3Q461.06-2.15 458.26-0.98 455.46 0.2 452.01 0.2L452.01 0.2Q447.91 0.2 444.86-1.5 441.81-3.2 440.11-6.23 438.41-9.25 438.41-13.25L438.41-13.25Q438.41-17.25 440.11-20.28 441.81-23.3 444.86-25 447.91-26.7 451.86-26.75L451.86-26.75Q456.56-26.75 459.41-24.83 462.26-22.9 463.46-19.4 464.66-15.9 464.31-11.1L464.31-11.1 443.06-11.1 443.06-15.2ZM497.01-26.75L497.01-21.55Q494.16-21.7 492.08-20.58 490.01-19.45 488.88-17.45 487.76-15.45 487.76-12.85L487.76-12.85 486.16-13.05Q486.16-17.5 487.46-20.55 488.76-23.6 491.21-25.18 493.66-26.75 497.01-26.75L497.01-26.75ZM482.06 0L482.06-26.55 487.81-26.55 487.81 0 482.06 0Z" opacity="1" transform="matrix(1,0,0,1,0,0)" fill="#000000" class="slogan-text-1" data-fill-palette-color="secondary" id="text-1"></path></svg></g></svg></g></svg></g></svg></g><g transform="matrix(1,0,0,1,119.42929545879352,0)"><svg viewBox="0 0 156.66140908241294 156.66140908241292" height="156.66140908241292" width="156.66140908241294"><g><svg></svg></g><g id="icon-0"><svg viewBox="0 0 156.66140908241294 156.66140908241292" height="156.66140908241292" width="156.66140908241294"><g><path transform="scale(1.56661,1.56661)" d="M30 100c-16.569 0-30-13.431-30-30v-40c0-16.569 13.431-30 30-30h40c16.569 0 30 13.431 30 30v40c0 16.569-13.431 30-30 30z" fill="#000000" fill-rule="nonzero" stroke="none" stroke-width="1" stroke-linecap="butt" stroke-linejoin="miter" stroke-miterlimit="10" stroke-dasharray="" stroke-dashoffset="0" font-family="none" font-weight="none" font-size="none" text-anchor="none" style="mix-blend-mode: normal" data-fill-palette-color="accent"></path></g><g transform="matrix(1,0,0,1,31.3322818164826,31.345932220006517)"><svg viewBox="0 0 93.99684544944775 93.96954464239988" height="93.96954464239988" width="93.99684544944775"><g><svg xmlns="http://www.w3.org/2000/svg" xml:space="preserve" viewBox="8.654149228036232 8.665163694355526 82.6914743335785 82.6674571022077" x="0" y="0" height="93.96954464239988" width="93.99684544944775" class="icon-dxe-0" data-fill-palette-color="quaternary" id="dxe-0"><path d="M70.056 45.268l-0.34-0.365C89.394 24.22 90.522 17.576 90.184 15.764c0.857-1.88 1.284-3.522 1.131-4.814a0.84 0.84 0 0 0-0.241-0.495l-1.539-1.54a0.84 0.84 0 0 0-0.558-0.246c-6.208-0.277-22.676 14.511-32.042 23.45l-0.33-0.303a0.84 0.84 0 0 0-1.19 0l-1.986 1.986a0.84 0.84 0 0 0 0.001 1.19l0.917 0.918-35.988 35.986a0.7 0.7 0 0 0-0.099 0.122l-5.09 7.472a0.84 0.84 0 0 0 0.099 1.069l0.329 0.329-3.854 6.032a0.84 0.84 0 0 0 0.114 1.05l0.13 0.132-1.208 1.945a0.84 0.84 0 0 0 0.121 1.037 0.84 0.84 0 0 0 1.04 0.122l1.946-1.205 0.129 0.129a0.84 0.84 0 0 0 1.05 0.114l6.033-3.855 0.328 0.329a0.84 0.84 0 0 0 1.07 0.099l7.473-5.087a1 1 0 0 0 0.121-0.102l12.667-12.665c1.423 0.295 4.643-1.213 14.353-9.929 4.998-4.487 9.839-9.231 11.494-10.865l0.274 0.274a0.84 0.84 0 0 0 1.19 0.002l1.986-1.987a0.837 0.837 0 0 0 0.001-1.19m-1.546-1.545l-0.521-0.521c5.042-5.096 11.79-12.265 16.738-18.814-2.83 4.223-7.746 10.424-16.217 19.335m20.079-33.368l1.072 1.073c0.038 1.048-0.382 2.402-1.136 3.967-0.013 0.029-0.028 0.051-0.038 0.079-3.434 7.057-13.751 18.436-21.689 26.512l-0.037-0.038-0.013 0.013-8.638-8.638c10.027-9.552 24.978-22.689 30.479-22.968M12.73 88.46l-0.123-0.123-0.957-0.957-0.122-0.121 3.292-5.149 3.059 3.059z m14.225-8.079l-6.829 4.65-5.169-5.169 4.649-6.829 35.932-35.93 7.347 7.348z m37.719-36.526l-8.541-8.539-0.919-0.92 0.795-0.793 0.249 0.249 9.879 9.88-0.795 0.793zM43.401 66.32l20.677-20.676 1.336 1.334C57.19 55.159 47.833 63.529 43.401 66.32m24.074-19.661l-0.939-0.941 0.793-0.795 0.942 0.942z" fill="#ffffff" data-fill-palette-color="quaternary"></path></svg></g></svg></g></svg></g></svg></g><g></g></svg></g><defs></defs></svg><rect width="343.72053390310776" height="247.2" fill="none" stroke="none" visibility="hidden"></rect></g></svg></g></svg>