<svg xmlns="http://www.w3.org/2000/svg" version="1.1" xmlns:xlink="http://www.w3.org/1999/xlink" xmlns:svgjs="http://svgjs.dev/svgjs" width="1500" height="393" viewBox="0 0 1500 393"><g transform="matrix(1,0,0,1,-0.9087083224604839,0.8602153806708657)"><svg viewBox="0 0 396 104" data-background-color="#f9f9f9" preserveAspectRatio="xMidYMid meet" height="393" width="1500" xmlns="http://www.w3.org/2000/svg" xmlns:xlink="http://www.w3.org/1999/xlink"><g id="tight-bounds" transform="matrix(1,0,0,1,0.23989899712955776,-0.22763969361264458)"><svg viewBox="0 0 395.52 104.4550773814845" height="104.4550773814845" width="395.52"><g><svg viewBox="0 0 555.839386391998 146.79471611360492" height="104.4550773814845" width="395.52"><g transform="matrix(1,0,0,1,0,20.287837031619787)"><svg viewBox="0 0 395.52 106.21904205036535" height="106.21904205036535" width="395.52"><g id="textblocktransform"><svg viewBox="0 0 395.52 106.21904205036535" height="106.21904205036535" width="395.52" id="textblock"><g><svg viewBox="0 0 395.52 57.28947575523622" height="57.28947575523622" width="395.52"><g transform="matrix(1,0,0,1,0,0)"><svg width="395.52" viewBox="3.85 -36 250.93625 36.35" height="57.28947575523622" data-palette-color="#030303"><path d="M3.85 0L3.85-25 7.3-25 7.55-21.4Q8.65-23.2 10.53-24.28 12.4-25.35 15-25.35L15-25.35Q17.65-25.35 19.83-24.08 22-22.8 23.2-20.3L23.2-20.3Q24.35-22.85 26.7-24.1 29.05-25.35 31.9-25.35L31.9-25.35Q34.7-25.35 36.85-24.13 39-22.9 40.2-20.48 41.4-18.05 41.4-14.4L41.4-14.4 41.4 0 37.65 0 37.65-13.95Q37.65-17.85 35.98-19.88 34.3-21.9 31.2-21.9L31.2-21.9Q28.05-21.9 26.2-19.73 24.35-17.55 24.35-13.3L24.35-13.3 24.35 0 20.6 0 20.6-13.95Q20.6-17.85 19-19.88 17.4-21.9 14.3-21.9L14.3-21.9Q11.15-21.9 9.38-19.73 7.6-17.55 7.6-13.3L7.6-13.3 7.6 0 3.85 0ZM49.4 0L49.4-25 53.1-25 53.1 0 49.4 0ZM51.3-30L51.3-30Q50.15-30 49.4-30.75 48.65-31.5 48.65-32.6L48.65-32.6Q48.65-33.75 49.4-34.5 50.15-35.25 51.3-35.25L51.3-35.25Q52.35-35.25 53.12-34.5 53.9-33.75 53.9-32.6L53.9-32.6Q53.9-31.5 53.12-30.75 52.35-30 51.3-30ZM61.55 0L61.55-25 65-25 65.2-21.45Q66.4-23.3 68.35-24.33 70.3-25.35 72.9-25.35L72.9-25.35Q75.75-25.35 77.9-24.13 80.05-22.9 81.25-20.48 82.45-18.05 82.45-14.4L82.45-14.4 82.45 0 78.7 0 78.7-13.95Q78.7-17.85 77.02-19.88 75.35-21.9 72.2-21.9L72.2-21.9Q68.95-21.9 67.12-19.75 65.3-17.6 65.3-13.4L65.3-13.4 65.3 0 61.55 0ZM108.99-19.95L108.99-19.95 108.59-19.9 108.59-36 112.34-36 112.34 0 108.89 0 108.64-4.65Q107.49-2.55 105.22-1.1 102.94 0.35 99.59 0.35L99.59 0.35Q96.14 0.35 93.57-1.23 90.99-2.8 89.57-5.7 88.14-8.6 88.14-12.5L88.14-12.5Q88.14-16.4 89.57-19.28 90.99-22.15 93.57-23.75 96.14-25.35 99.59-25.35L99.59-25.35Q103.14-25.35 105.49-23.8 107.84-22.25 108.99-19.95ZM92.19-12.5L92.19-12.5Q92.19-8.2 94.39-5.68 96.59-3.15 100.39-3.15L100.39-3.15Q102.74-3.15 104.59-4.25 106.44-5.35 107.52-7.45 108.59-9.55 108.59-12.5L108.59-12.5Q108.59-15.45 107.52-17.53 106.44-19.6 104.59-20.73 102.74-21.85 100.39-21.85L100.39-21.85Q96.64-21.85 94.42-19.33 92.19-16.8 92.19-12.5ZM118.44-6.45L122.04-7.65Q122.34-6.15 123.14-5.18 123.94-4.2 125.22-3.7 126.49-3.2 128.19-3.2L128.19-3.2Q130.84-3.2 132.22-4.23 133.59-5.25 133.59-6.8L133.59-6.8Q133.59-8.1 132.77-8.9 131.94-9.7 130.59-10.23 129.24-10.75 127.59-11.15L127.59-11.15Q126.29-11.45 124.79-11.88 123.29-12.3 121.94-13.05 120.59-13.8 119.74-15 118.89-16.2 118.89-18.15L118.89-18.15Q118.89-20.3 120.07-21.93 121.24-23.55 123.32-24.45 125.39-25.35 128.09-25.35L128.09-25.35Q131.19-25.35 133.62-24 136.04-22.65 136.99-19.8L136.99-19.8 133.49-18.6Q133.14-19.9 132.22-20.6 131.29-21.3 130.17-21.55 129.04-21.8 127.94-21.8L127.94-21.8Q125.69-21.8 124.32-20.93 122.94-20.05 122.94-18.3L122.94-18.3Q122.94-17.35 123.39-16.73 123.84-16.1 124.64-15.7 125.44-15.3 126.54-15.03 127.64-14.75 128.94-14.4L128.94-14.4Q130.39-14.05 131.89-13.53 133.39-13 134.69-12.18 135.99-11.35 136.82-10.08 137.64-8.8 137.64-6.9L137.64-6.9Q137.64-4.7 136.44-3.08 135.24-1.45 133.12-0.55 130.99 0.35 128.19 0.35L128.19 0.35Q124.34 0.35 121.82-1.38 119.29-3.1 118.44-6.45L118.44-6.45ZM154.39 0.35L154.39 0.35Q150.74 0.35 147.99-1.25 145.24-2.85 143.71-5.73 142.19-8.6 142.19-12.4L142.19-12.4Q142.19-16.25 143.71-19.18 145.24-22.1 147.99-23.73 150.74-25.35 154.39-25.35L154.39-25.35Q158.24-25.35 161.14-23.58 164.04-21.8 165.34-18.65L165.34-18.65 161.89-17.45Q161.14-19.45 159.16-20.63 157.19-21.8 154.59-21.8L154.59-21.8Q152.04-21.8 150.16-20.65 148.29-19.5 147.26-17.4 146.24-15.3 146.24-12.45L146.24-12.45Q146.24-8.25 148.49-5.73 150.74-3.2 154.49-3.2L154.49-3.2Q157.04-3.2 159.04-4.35 161.04-5.5 161.99-7.45L161.99-7.45 165.39-6.25Q164.04-3.15 161.14-1.4 158.24 0.35 154.39 0.35ZM171.54 0L171.54-25 174.99-25 175.19-21.35Q176.19-22.7 177.61-23.65 179.04-24.6 180.76-24.98 182.49-25.35 184.44-25L184.44-25 184.44-21.25Q182.34-21.65 180.66-21.25 178.99-20.85 177.79-19.75 176.59-18.65 175.94-16.98 175.29-15.3 175.29-13.1L175.29-13.1 175.29 0 171.54 0ZM190.28 0L190.28-25 193.98-25 193.98 0 190.28 0ZM192.18-30L192.18-30Q191.03-30 190.28-30.75 189.53-31.5 189.53-32.6L189.53-32.6Q189.53-33.75 190.28-34.5 191.03-35.25 192.18-35.25L192.18-35.25Q193.23-35.25 194.01-34.5 194.78-33.75 194.78-32.6L194.78-32.6Q194.78-31.5 194.01-30.75 193.23-30 192.18-30ZM206.18-19.9L205.78-19.95Q206.88-22.25 209.23-23.8 211.58-25.35 215.18-25.35L215.18-25.35Q218.63-25.35 221.21-23.75 223.78-22.15 225.21-19.28 226.63-16.4 226.63-12.5L226.63-12.5Q226.63-8.6 225.18-5.7 223.73-2.8 221.16-1.23 218.58 0.35 215.18 0.35L215.18 0.35Q211.78 0.35 209.53-1.1 207.28-2.55 206.13-4.65L206.13-4.65 205.88 0 202.43 0 202.43-36 206.18-36 206.18-19.9ZM222.58-12.5L222.58-12.5Q222.58-16.8 220.36-19.33 218.13-21.85 214.38-21.85L214.38-21.85Q212.03-21.85 210.16-20.73 208.28-19.6 207.23-17.53 206.18-15.45 206.18-12.5L206.18-12.5Q206.18-9.55 207.23-7.45 208.28-5.35 210.16-4.25 212.03-3.15 214.38-3.15L214.38-3.15Q218.13-3.15 220.36-5.68 222.58-8.2 222.58-12.5ZM243.23 0.35L243.23 0.35Q239.73 0.35 237-1.35 234.28-3.05 232.73-6 231.18-8.95 231.18-12.75L231.18-12.75Q231.18-16.4 232.73-19.25 234.28-22.1 236.98-23.73 239.68-25.35 243.13-25.35L243.13-25.35Q246.53-25.35 249.2-23.85 251.88-22.35 253.38-19.7 254.88-17.05 254.78-13.65L254.78-13.65Q254.78-13.1 254.73-12.5 254.68-11.9 254.63-11.2L254.63-11.2 235.28-11.2Q235.38-8.85 236.43-7.05 237.48-5.25 239.2-4.23 240.93-3.2 243.13-3.2L243.13-3.2Q246.03-3.2 248.05-4.3 250.08-5.4 250.98-7.45L250.98-7.45 254.23-6.15Q252.73-3 249.88-1.33 247.03 0.35 243.23 0.35ZM235.33-14.45L250.68-14.45Q250.73-16.6 249.75-18.25 248.78-19.9 247.03-20.85 245.28-21.8 242.98-21.8L242.98-21.8Q240.98-21.8 239.33-20.85 237.68-19.9 236.6-18.23 235.53-16.55 235.33-14.45L235.33-14.45Z" opacity="1" transform="matrix(1,0,0,1,0,0)" fill="#030303" class="wordmark-text-0" data-fill-palette-color="primary" id="text-0"></path></svg></g></svg></g><g transform="matrix(1,0,0,1,0,70.81414603362936)"><svg viewBox="0 0 395.52 35.40489601673598" height="35.40489601673598" width="395.52"><g transform="matrix(1,0,0,1,0,0)"><svg width="395.52" viewBox="4.5 -37.1 525.61 47.05" height="35.40489601673598" data-palette-color="#030303"><path d="M19.55-26.75L19.55-26.75Q23.35-26.75 26.2-25.05 29.05-23.35 30.65-20.3 32.25-17.25 32.25-13.2L32.25-13.2Q32.25-9.25 30.68-6.23 29.1-3.2 26.28-1.5 23.45 0.2 19.65 0.2L19.65 0.2Q16 0.2 13.43-1.4 10.85-3 9.5-6.03 8.15-9.05 8.15-13.2L8.15-13.2Q8.15-17.5 9.5-20.53 10.85-23.55 13.43-25.15 16-26.75 19.55-26.75ZM18.35-22.2L18.35-22.2Q16-22.2 14.15-21.05 12.3-19.9 11.28-17.93 10.25-15.95 10.25-13.35L10.25-13.35Q10.25-10.75 11.28-8.72 12.3-6.7 14.15-5.58 16-4.45 18.35-4.45L18.35-4.45Q20.75-4.45 22.58-5.6 24.4-6.75 25.43-8.75 26.45-10.75 26.45-13.35L26.45-13.35Q26.45-15.9 25.43-17.9 24.4-19.9 22.58-21.05 20.75-22.2 18.35-22.2ZM4.5 0L4.5-37.1 10.25-37.1 10.25 0 4.5 0ZM54.7-15.2L70.95-15.2Q70.85-17.45 69.92-19.03 69-20.6 67.35-21.48 65.7-22.35 63.55-22.35L63.55-22.35Q61.15-22.35 59.37-21.25 57.6-20.15 56.6-18.18 55.6-16.2 55.6-13.55L55.6-13.55Q55.6-10.7 56.67-8.6 57.75-6.5 59.67-5.35 61.6-4.2 64.1-4.2L64.1-4.2Q68.55-4.2 71.6-7.35L71.6-7.35 74.65-4.3Q72.7-2.15 69.9-0.98 67.1 0.2 63.65 0.2L63.65 0.2Q59.55 0.2 56.5-1.5 53.45-3.2 51.75-6.23 50.05-9.25 50.05-13.25L50.05-13.25Q50.05-17.25 51.75-20.28 53.45-23.3 56.5-25 59.55-26.7 63.5-26.75L63.5-26.75Q68.2-26.75 71.05-24.83 73.9-22.9 75.1-19.4 76.3-15.9 75.95-11.1L75.95-11.1 54.7-11.1 54.7-15.2ZM146.59-26.55L134.49 3.75Q133.24 6.8 131.04 8.38 128.84 9.95 125.84 9.95L125.84 9.95Q124.04 9.95 122.57 9.4 121.09 8.85 119.69 7.75L119.69 7.75 122.14 3.5Q123.94 4.8 125.59 4.8L125.59 4.8Q126.89 4.8 127.94 4.05 128.99 3.3 129.64 1.75L129.64 1.75 130.54-0.35 119.54-26.55 125.49-26.55 133.44-6.05 140.84-26.55 146.59-26.55ZM176.29-26.75L176.29-26.75Q180.39-26.75 183.51-25.05 186.64-23.35 188.39-20.33 190.14-17.3 190.14-13.3L190.14-13.3Q190.14-9.3 188.39-6.25 186.64-3.2 183.51-1.5 180.39 0.2 176.29 0.2L176.29 0.2Q172.19 0.2 169.04-1.5 165.89-3.2 164.14-6.25 162.39-9.3 162.39-13.3L162.39-13.3Q162.39-17.3 164.14-20.33 165.89-23.35 169.04-25.05 172.19-26.75 176.29-26.75ZM176.29-22.1L176.29-22.1Q173.89-22.1 172.04-20.98 170.19-19.85 169.16-17.85 168.14-15.85 168.14-13.25L168.14-13.25Q168.14-10.6 169.16-8.6 170.19-6.6 172.04-5.48 173.89-4.35 176.29-4.35L176.29-4.35Q178.69-4.35 180.51-5.48 182.34-6.6 183.36-8.6 184.39-10.6 184.39-13.25L184.39-13.25Q184.39-15.85 183.36-17.85 182.34-19.85 180.51-20.98 178.69-22.1 176.29-22.1ZM215.34-26.55L215.34-11.55Q215.34-8.45 216.99-6.68 218.64-4.9 221.54-4.9L221.54-4.9Q224.99-5 226.91-7.45 228.84-9.9 228.84-13.5L228.84-13.5 230.39-13.5Q230.39-8.6 229.04-5.6 227.69-2.6 225.21-1.23 222.74 0.15 219.34 0.2L219.34 0.2Q216.29 0.2 214.11-1.05 211.94-2.3 210.76-4.6 209.59-6.9 209.59-10.05L209.59-10.05 209.59-26.55 215.34-26.55ZM228.84 0L228.84-26.55 234.59-26.55 234.59 0 228.84 0ZM257.78-2.3L259.13 0.35Q257.23 0.35 256.36-0.58 255.48-1.5 255.48-2.7L255.48-2.7Q255.48-4.05 256.36-4.9 257.23-5.75 258.58-5.75L258.58-5.75Q259.78-5.75 260.71-4.95 261.63-4.15 261.63-2.7L261.63-2.7Q261.63-2 261.36-1.4 261.08-0.8 260.78-0.2L260.78-0.2 257.93 5.5 254.98 5.5 257.78-2.3ZM325.48-26.75L325.48-26.75Q329.28-26.75 332.13-25.05 334.98-23.35 336.58-20.3 338.18-17.25 338.18-13.2L338.18-13.2Q338.18-9.25 336.6-6.23 335.03-3.2 332.2-1.5 329.38 0.2 325.58 0.2L325.58 0.2Q321.93 0.2 319.35-1.4 316.78-3 315.43-6.03 314.08-9.05 314.08-13.2L314.08-13.2Q314.08-17.5 315.43-20.53 316.78-23.55 319.35-25.15 321.93-26.75 325.48-26.75ZM324.28-22.2L324.28-22.2Q321.93-22.2 320.08-21.05 318.23-19.9 317.2-17.93 316.18-15.95 316.18-13.35L316.18-13.35Q316.18-10.75 317.2-8.72 318.23-6.7 320.08-5.58 321.93-4.45 324.28-4.45L324.28-4.45Q326.68-4.45 328.5-5.6 330.33-6.75 331.35-8.75 332.38-10.75 332.38-13.35L332.38-13.35Q332.38-15.9 331.35-17.9 330.33-19.9 328.5-21.05 326.68-22.2 324.28-22.2ZM310.43 0L310.43-37.1 316.18-37.1 316.18 0 310.43 0ZM360.62-15.2L376.87-15.2Q376.77-17.45 375.85-19.03 374.92-20.6 373.27-21.48 371.62-22.35 369.47-22.35L369.47-22.35Q367.07-22.35 365.3-21.25 363.52-20.15 362.52-18.18 361.52-16.2 361.52-13.55L361.52-13.55Q361.52-10.7 362.6-8.6 363.67-6.5 365.6-5.35 367.52-4.2 370.02-4.2L370.02-4.2Q374.47-4.2 377.52-7.35L377.52-7.35 380.57-4.3Q378.62-2.15 375.82-0.98 373.02 0.2 369.57 0.2L369.57 0.2Q365.47 0.2 362.42-1.5 359.37-3.2 357.67-6.23 355.97-9.25 355.97-13.25L355.97-13.25Q355.97-17.25 357.67-20.28 359.37-23.3 362.42-25 365.47-26.7 369.42-26.75L369.42-26.75Q374.12-26.75 376.97-24.83 379.82-22.9 381.02-19.4 382.22-15.9 381.87-11.1L381.87-11.1 360.62-11.1 360.62-15.2ZM408.92-32.85L408.92-8.4Q408.92-6.25 409.67-5.48 410.42-4.7 411.77-4.7L411.77-4.7Q412.67-4.7 413.65-5 414.62-5.3 415.77-5.9L415.77-5.9 417.22-1.75Q415.67-0.8 414.02-0.28 412.37 0.25 410.67 0.25L410.67 0.25Q408.67 0.25 406.97-0.53 405.27-1.3 404.25-3 403.22-4.7 403.22-7.4L403.22-7.4 403.22-32.85 408.92-32.85ZM399.47-21.5L399.47-25.6 416.77-25.6 416.77-21.5 399.47-21.5ZM443.57-32.85L443.57-8.4Q443.57-6.25 444.32-5.48 445.07-4.7 446.42-4.7L446.42-4.7Q447.32-4.7 448.29-5 449.27-5.3 450.42-5.9L450.42-5.9 451.87-1.75Q450.32-0.8 448.67-0.28 447.02 0.25 445.32 0.25L445.32 0.25Q443.32 0.25 441.62-0.53 439.92-1.3 438.89-3 437.87-4.7 437.87-7.4L437.87-7.4 437.87-32.85 443.57-32.85ZM434.12-21.5L434.12-25.6 451.42-25.6 451.42-21.5 434.12-21.5ZM473.61-15.2L489.86-15.2Q489.76-17.45 488.84-19.03 487.91-20.6 486.26-21.48 484.61-22.35 482.46-22.35L482.46-22.35Q480.06-22.35 478.29-21.25 476.51-20.15 475.51-18.18 474.51-16.2 474.51-13.55L474.51-13.55Q474.51-10.7 475.59-8.6 476.66-6.5 478.59-5.35 480.51-4.2 483.01-4.2L483.01-4.2Q487.46-4.2 490.51-7.35L490.51-7.35 493.56-4.3Q491.61-2.15 488.81-0.98 486.01 0.2 482.56 0.2L482.56 0.2Q478.46 0.2 475.41-1.5 472.36-3.2 470.66-6.23 468.96-9.25 468.96-13.25L468.96-13.25Q468.96-17.25 470.66-20.28 472.36-23.3 475.41-25 478.46-26.7 482.41-26.75L482.41-26.75Q487.11-26.75 489.96-24.83 492.81-22.9 494.01-19.4 495.21-15.9 494.86-11.1L494.86-11.1 473.61-11.1 473.61-15.2ZM530.11-26.75L530.11-21.55Q527.26-21.7 525.19-20.58 523.11-19.45 521.99-17.45 520.86-15.45 520.86-12.85L520.86-12.85 519.26-13.05Q519.26-17.5 520.56-20.55 521.86-23.6 524.31-25.18 526.76-26.75 530.11-26.75L530.11-26.75ZM515.16 0L515.16-26.55 520.91-26.55 520.91 0 515.16 0Z" opacity="1" transform="matrix(1,0,0,1,0,0)" fill="#030303" class="slogan-text-1" data-fill-palette-color="secondary" id="text-1"></path></svg></g></svg></g></svg></g></svg></g><g transform="matrix(1,0,0,1,409.04467027839314,0)"><svg viewBox="0 0 146.79471611360492 146.79471611360492" height="146.79471611360492" width="146.79471611360492"><g><svg></svg></g><g id="icon-0"><svg viewBox="0 0 146.79471611360492 146.79471611360492" height="146.79471611360492" width="146.79471611360492"><g><path transform="scale(1.46795,1.46795)" d="M30 100c-16.569 0-30-13.431-30-30v-40c0-16.569 13.431-30 30-30h40c16.569 0 30 13.431 30 30v40c0 16.569-13.431 30-30 30z" fill="#030303" fill-rule="nonzero" stroke="none" stroke-width="1" stroke-linecap="butt" stroke-linejoin="miter" stroke-miterlimit="10" stroke-dasharray="" stroke-dashoffset="0" font-family="none" font-weight="none" font-size="none" text-anchor="none" style="mix-blend-mode: normal" data-fill-palette-color="accent"></path></g><g transform="matrix(1,0,0,1,29.35894322272098,29.37173391011406)"><svg viewBox="0 0 88.07682966816296 88.0512482933768" height="88.0512482933768" width="88.07682966816296"><g><svg xmlns="http://www.w3.org/2000/svg" xml:space="preserve" viewBox="8.654149228036232 8.665163694355526 82.6914743335785 82.6674571022077" x="0" y="0" height="88.0512482933768" width="88.07682966816296" class="icon-dxe-0" data-fill-palette-color="quaternary" id="dxe-0"><path d="M70.056 45.268l-0.34-0.365C89.394 24.22 90.522 17.576 90.184 15.764c0.857-1.88 1.284-3.522 1.131-4.814a0.84 0.84 0 0 0-0.241-0.495l-1.539-1.54a0.84 0.84 0 0 0-0.558-0.246c-6.208-0.277-22.676 14.511-32.042 23.45l-0.33-0.303a0.84 0.84 0 0 0-1.19 0l-1.986 1.986a0.84 0.84 0 0 0 0.001 1.19l0.917 0.918-35.988 35.986a0.7 0.7 0 0 0-0.099 0.122l-5.09 7.472a0.84 0.84 0 0 0 0.099 1.069l0.329 0.329-3.854 6.032a0.84 0.84 0 0 0 0.114 1.05l0.13 0.132-1.208 1.945a0.84 0.84 0 0 0 0.121 1.037 0.84 0.84 0 0 0 1.04 0.122l1.946-1.205 0.129 0.129a0.84 0.84 0 0 0 1.05 0.114l6.033-3.855 0.328 0.329a0.84 0.84 0 0 0 1.07 0.099l7.473-5.087a1 1 0 0 0 0.121-0.102l12.667-12.665c1.423 0.295 4.643-1.213 14.353-9.929 4.998-4.487 9.839-9.231 11.494-10.865l0.274 0.274a0.84 0.84 0 0 0 1.19 0.002l1.986-1.987a0.837 0.837 0 0 0 0.001-1.19m-1.546-1.545l-0.521-0.521c5.042-5.096 11.79-12.265 16.738-18.814-2.83 4.223-7.746 10.424-16.217 19.335m20.079-33.368l1.072 1.073c0.038 1.048-0.382 2.402-1.136 3.967-0.013 0.029-0.028 0.051-0.038 0.079-3.434 7.057-13.751 18.436-21.689 26.512l-0.037-0.038-0.013 0.013-8.638-8.638c10.027-9.552 24.978-22.689 30.479-22.968M12.73 88.46l-0.123-0.123-0.957-0.957-0.122-0.121 3.292-5.149 3.059 3.059z m14.225-8.079l-6.829 4.65-5.169-5.169 4.649-6.829 35.932-35.93 7.347 7.348z m37.719-36.526l-8.541-8.539-0.919-0.92 0.795-0.793 0.249 0.249 9.879 9.88-0.795 0.793zM43.401 66.32l20.677-20.676 1.336 1.334C57.19 55.159 47.833 63.529 43.401 66.32m24.074-19.661l-0.939-0.941 0.793-0.795 0.942 0.942z" fill="#f9f9f9" data-fill-palette-color="quaternary"></path></svg></g></svg></g></svg></g></svg></g></svg></g><defs></defs></svg><rect width="395.52" height="104.4550773814845" fill="none" stroke="none" visibility="hidden"></rect></g></svg></g></svg>