<svg xmlns="http://www.w3.org/2000/svg" version="1.1" xmlns:xlink="http://www.w3.org/1999/xlink" xmlns:svgjs="http://svgjs.dev/svgjs" width="128" height="128" viewBox="0 0 128 128"><g transform="matrix(0.8046875,0,0,0.8046875,12.2708458968483,13.570115455151992)"><svg viewBox="0 0 96 95" data-background-color="#ffffff" preserveAspectRatio="xMidYMid meet" height="126" width="128" xmlns="http://www.w3.org/2000/svg" xmlns:xlink="http://www.w3.org/1999/xlink"><g id="tight-bounds" transform="matrix(1,0,0,1,0.281359051517839,-0.24869809944893007)"><svg viewBox="0 0 95.481 95.45326812936888" height="95.45326812936888" width="95.481"><g><svg viewBox="0 0 95.481 95.45326812936888" height="95.45326812936888" width="95.481"><g><svg viewBox="0 0 95.481 95.45326812936888" height="95.45326812936888" width="95.481"><g id="textblocktransform"><svg viewBox="0 0 95.481 95.45326812936888" height="95.45326812936888" width="95.481" id="textblock"><g><svg viewBox="0 0 95.481 95.45326812936888" height="95.45326812936888" width="95.481"><g><svg viewBox="0 0 95.481 95.45326812936888" height="95.45326812936888" width="95.481"><g><svg xmlns="http://www.w3.org/2000/svg" xml:space="preserve" viewBox="8.654149228036232 8.665163694355526 82.6914743335785 82.6674571022077" x="0" y="0" height="95.45326812936888" width="95.481" class="icon-icon-0" data-fill-palette-color="accent" id="icon-0"><path d="M70.056 45.268l-0.34-0.365C89.394 24.22 90.522 17.576 90.184 15.764c0.857-1.88 1.284-3.522 1.131-4.814a0.84 0.84 0 0 0-0.241-0.495l-1.539-1.54a0.84 0.84 0 0 0-0.558-0.246c-6.208-0.277-22.676 14.511-32.042 23.45l-0.33-0.303a0.84 0.84 0 0 0-1.19 0l-1.986 1.986a0.84 0.84 0 0 0 0.001 1.19l0.917 0.918-35.988 35.986a0.7 0.7 0 0 0-0.099 0.122l-5.09 7.472a0.84 0.84 0 0 0 0.099 1.069l0.329 0.329-3.854 6.032a0.84 0.84 0 0 0 0.114 1.05l0.13 0.132-1.208 1.945a0.84 0.84 0 0 0 0.121 1.037 0.84 0.84 0 0 0 1.04 0.122l1.946-1.205 0.129 0.129a0.84 0.84 0 0 0 1.05 0.114l6.033-3.855 0.328 0.329a0.84 0.84 0 0 0 1.07 0.099l7.473-5.087a1 1 0 0 0 0.121-0.102l12.667-12.665c1.423 0.295 4.643-1.213 14.353-9.929 4.998-4.487 9.839-9.231 11.494-10.865l0.274 0.274a0.84 0.84 0 0 0 1.19 0.002l1.986-1.987a0.837 0.837 0 0 0 0.001-1.19m-1.546-1.545l-0.521-0.521c5.042-5.096 11.79-12.265 16.738-18.814-2.83 4.223-7.746 10.424-16.217 19.335m20.079-33.368l1.072 1.073c0.038 1.048-0.382 2.402-1.136 3.967-0.013 0.029-0.028 0.051-0.038 0.079-3.434 7.057-13.751 18.436-21.689 26.512l-0.037-0.038-0.013 0.013-8.638-8.638c10.027-9.552 24.978-22.689 30.479-22.968M12.73 88.46l-0.123-0.123-0.957-0.957-0.122-0.121 3.292-5.149 3.059 3.059z m14.225-8.079l-6.829 4.65-5.169-5.169 4.649-6.829 35.932-35.93 7.347 7.348z m37.719-36.526l-8.541-8.539-0.919-0.92 0.795-0.793 0.249 0.249 9.879 9.88-0.795 0.793zM43.401 66.32l20.677-20.676 1.336 1.334C57.19 55.159 47.833 63.529 43.401 66.32m24.074-19.661l-0.939-0.941 0.793-0.795 0.942 0.942z" fill="#000000" data-fill-palette-color="accent"></path></svg></g></svg></g></svg></g></svg></g></svg></g><g></g></svg></g><defs></defs></svg><rect width="95.481" height="95.45326812936888" fill="none" stroke="none" visibility="hidden"></rect></g></svg></g></svg>